<?xml version="1.0" encoding="iso-8859-1"?>
<!-- Generator: Adobe Illustrator 21.0.0, SVG Export Plug-In . SVG Version: 6.00 Build 0)  -->
<svg version="1.1" xmlns="http://www.w3.org/2000/svg" xmlns:xlink="http://www.w3.org/1999/xlink" x="0px" y="0px" width="1400px"
	 height="1400px" viewBox="0 0 1400 1400" enable-background="new 0 0 1400 1400" xml:space="preserve">
<g id="Background">
	<radialGradient id="color_fill_1_" cx="700" cy="700" r="1072.5452" gradientUnits="userSpaceOnUse">
		<stop  offset="0" style="stop-color:#0A2C54"/>
		<stop  offset="0.9892" style="stop-color:#000D29"/>
	</radialGradient>
	<rect id="color_fill" fill="url(#color_fill_1_)" width="1400" height="1400"/>
</g>
<g id="Objects">
	<g id="galaxy">
		<defs>
			<rect id="SVGID_1_" width="1400" height="1400"/>
		</defs>
		<clipPath id="SVGID_2_">
			<use xlink:href="#SVGID_1_"  overflow="visible"/>
		</clipPath>
		<g clip-path="url(#SVGID_2_)">
			
				<radialGradient id="light_FX_-_blue_2_" cx="2654.4985" cy="-495.2248" r="3130.2837" gradientTransform="matrix(-0.1616 -0.1616 0.7071 -0.7071 569.3716 778.6884)" gradientUnits="userSpaceOnUse">
				<stop  offset="0" style="stop-color:#0059FF"/>
				<stop  offset="1" style="stop-color:#0059FF;stop-opacity:0"/>
			</radialGradient>
			<path id="light_FX_-_blue" opacity="0.4" fill="url(#light_FX_-_blue_2_)" d="M-2423.1,2913.4
				c279.3,279.3,1496.7-485.3,2719.2-1707.7s1987-2439.9,1707.7-2719.2S507-1028.2-715.4,194.3S-2702.4,2634.1-2423.1,2913.4z"/>
			
				<radialGradient id="light_FX_-_blue_3_" cx="-2830.0435" cy="757.8981" r="3130.2837" gradientTransform="matrix(-0.1616 -0.1616 0.7071 -0.7071 569.3716 778.6884)" gradientUnits="userSpaceOnUse">
				<stop  offset="0" style="stop-color:#0059FF"/>
				<stop  offset="1" style="stop-color:#0059FF;stop-opacity:0"/>
			</radialGradient>
			<path id="light_FX_-_blue_1_" opacity="0.4" fill="url(#light_FX_-_blue_3_)" d="M-650.9,2913.4
				c279.3,279.3,1496.7-485.3,2719.2-1707.7s1987-2439.9,1707.7-2719.2S2279.2-1028.2,1056.8,194.3S-930.2,2634.1-650.9,2913.4z"/>
			
				<radialGradient id="light_FX_-_megenta_1_" cx="-118.3537" cy="138.3239" r="2445.782" gradientTransform="matrix(-0.1616 -0.1616 0.7071 -0.7071 569.3716 778.6884)" gradientUnits="userSpaceOnUse">
				<stop  offset="0" style="stop-color:#AE00FF"/>
				<stop  offset="1" style="stop-color:#AE00FF;stop-opacity:0"/>
			</radialGradient>
			<path id="light_FX_-_megenta" opacity="0.2" fill="url(#light_FX_-_megenta_1_)" d="M-1043.1,2429.4
				c218.2,218.2,1169.4-379.1,2124.6-1334.3S2634-811.2,2415.7-1029.4C2197.5-1247.7,1246.3-650.3,291.2,304.9
				S-1261.4,2211.2-1043.1,2429.4z"/>
			<g id="planet">
				
					<radialGradient id="SVGID_3_" cx="514.2606" cy="-526.8651" r="932.9351" gradientTransform="matrix(0.7071 -0.7071 0.7071 0.7071 -278.1162 467.7856)" gradientUnits="userSpaceOnUse">
					<stop  offset="0.54" style="stop-color:#00FFFF;stop-opacity:0"/>
					<stop  offset="1" style="stop-color:#00FFFF"/>
				</radialGradient>
				<circle fill="url(#SVGID_3_)" cx="141.1" cy="141.1" r="328.3"/>
				
					<radialGradient id="SVGID_4_" cx="1193.9174" cy="385.2465" r="621.2858" gradientTransform="matrix(0.7071 -0.7071 0.7071 0.7071 -257.8521 780.5208)" gradientUnits="userSpaceOnUse">
					<stop  offset="0.54" style="stop-color:#FFDE7A;stop-opacity:0"/>
					<stop  offset="1" style="stop-color:#FFDE7A"/>
				</radialGradient>
				<circle fill="url(#SVGID_4_)" cx="1143.9" cy="481.4" r="218.6"/>
				
					<radialGradient id="SVGID_5_" cx="238.0178" cy="224.2765" r="395.1383" gradientTransform="matrix(0.7071 -0.7071 0.7071 0.7071 -257.8521 780.5208)" gradientUnits="userSpaceOnUse">
					<stop  offset="0.54" style="stop-color:#FF40CF;stop-opacity:0"/>
					<stop  offset="1" style="stop-color:#FF40CF"/>
				</radialGradient>
				<circle fill="url(#SVGID_5_)" cx="250.4" cy="944.2" r="139"/>
				
					<radialGradient id="SVGID_6_" cx="1154.0519" cy="-557.2735" r="1851.66" gradientTransform="matrix(-0.7071 0.7071 -0.7071 -0.7071 2335.4036 1087.0662)" gradientUnits="userSpaceOnUse">
					<stop  offset="0.7247" style="stop-color:#0059FF;stop-opacity:0"/>
					<stop  offset="1" style="stop-color:#0059FF"/>
				</radialGradient>
				<circle fill="url(#SVGID_6_)" cx="1143.9" cy="1561.1" r="590.1"/>
			</g>
			<g id="meteor">
				<g>
					<g>
						
							<linearGradient id="SVGID_7_" gradientUnits="userSpaceOnUse" x1="861.9657" y1="234.8652" x2="1341.1257" y2="234.8652" gradientTransform="matrix(1 0 0 1 -280.2374 4.7148)">
							<stop  offset="0" style="stop-color:#FFFFFF"/>
							<stop  offset="1" style="stop-color:#FFFFFF;stop-opacity:0"/>
						</linearGradient>
						<path opacity="0.2" fill="url(#SVGID_7_)" d="M1060.9,0C1056.8-4,642,404.1,612.6,433.5c-29.4,29.4-33.7,40.3-29.6,44.4
							s15-0.2,44.4-29.6C656.8,418.9,1064.9,4.1,1060.9,0z"/>
						
							<linearGradient id="SVGID_8_" gradientUnits="userSpaceOnUse" x1="327.9364" y1="1208.7854" x2="538.2202" y2="1208.7854" gradientTransform="matrix(0.7071 -0.7071 0.7071 0.7071 -502.7001 -145.8921)">
							<stop  offset="0" style="stop-color:#FFFFFF"/>
							<stop  offset="1" style="stop-color:#FFFFFF;stop-opacity:0"/>
						</linearGradient>
						<path opacity="0.7" fill="url(#SVGID_8_)" d="M732.6,328.3C730,325.6,609,442.4,596.9,454.5c-12.1,12.1-15.6,19.8-13,22.5
							s10.3-0.8,22.5-13C618.5,451.9,735.2,330.9,732.6,328.3z"/>
						<path opacity="0.5" fill="#FFFFFF" d="M659.7,401.1c-1.3-1.3-61.9,57.1-68,63.2c-6.1,6.1-7.8,9.9-6.5,11.3
							c1.3,1.3,5.2-0.4,11.3-6.5C602.6,463.1,661.1,402.5,659.7,401.1z"/>
					</g>
					
						<radialGradient id="SVGID_9_" cx="1452.2094" cy="229.2255" r="41.1978" gradientTransform="matrix(2.897 -2.897 0.7071 0.7071 -3750.5222 4487.2368)" gradientUnits="userSpaceOnUse">
						<stop  offset="0" style="stop-color:#FFFFFF"/>
						<stop  offset="0.1375" style="stop-color:#FFFFFF;stop-opacity:0.8625"/>
						<stop  offset="1" style="stop-color:#FFFFFF;stop-opacity:0"/>
					</radialGradient>
					<path fill="url(#SVGID_9_)" d="M589.4,413.2c-65.9,65.9-106.3,132.4-90.2,148.5c16.1,16.1,82.6-24.3,148.5-90.2
						S754,339.1,737.9,323C721.8,306.9,655.4,347.3,589.4,413.2z"/>
				</g>
				<g>
					<g>
						
							<linearGradient id="SVGID_10_" gradientUnits="userSpaceOnUse" x1="906.7412" y1="438.2445" x2="1611.2832" y2="438.2445" gradientTransform="matrix(1 0 0 1 -394.6848 -42.6908)">
							<stop  offset="0" style="stop-color:#FFFFFF"/>
							<stop  offset="1" style="stop-color:#FFFFFF;stop-opacity:0"/>
						</linearGradient>
						<path opacity="0.2" fill="url(#SVGID_10_)" d="M1216.6,43.3c-4.1-4.1-644.2,629.5-673.6,658.9c-29.4,29.4-33.7,40.3-29.6,44.4
							c4.1,4.1,15-0.3,44.4-29.6C587.1,687.5,1220.6,47.4,1216.6,43.3z"/>
						
							<linearGradient id="SVGID_11_" gradientUnits="userSpaceOnUse" x1="136.102" y1="1463.9419" x2="346.3858" y2="1463.9419" gradientTransform="matrix(0.7071 -0.7071 0.7071 0.7071 -617.1475 -193.2978)">
							<stop  offset="0" style="stop-color:#FFFFFF"/>
							<stop  offset="1" style="stop-color:#FFFFFF;stop-opacity:0"/>
						</linearGradient>
						<path opacity="0.7" fill="url(#SVGID_11_)" d="M662.9,596.9c-2.6-2.6-123.6,114.1-135.7,126.2c-12.1,12.1-15.6,19.8-13,22.5
							c2.6,2.6,10.3-0.8,22.5-13C548.8,720.6,665.6,599.6,662.9,596.9z"/>
						<path opacity="0.5" fill="#FFFFFF" d="M590.1,669.8c-1.3-1.3-61.9,57.1-68,63.2c-6.1,6.1-7.8,9.9-6.5,11.3s5.2-0.4,11.3-6.5
							C532.9,731.7,591.4,671.1,590.1,669.8z"/>
					</g>
					
						<radialGradient id="SVGID_12_" cx="1405.3854" cy="484.382" r="41.1978" gradientTransform="matrix(2.897 -2.897 0.7071 0.7071 -3864.9695 4439.8311)" gradientUnits="userSpaceOnUse">
						<stop  offset="0" style="stop-color:#FFFFFF"/>
						<stop  offset="0.1375" style="stop-color:#FFFFFF;stop-opacity:0.8625"/>
						<stop  offset="1" style="stop-color:#FFFFFF;stop-opacity:0"/>
					</radialGradient>
					<path fill="url(#SVGID_12_)" d="M519.8,681.9c-65.9,65.9-106.3,132.4-90.2,148.5c16.1,16.1,82.6-24.3,148.5-90.2
						s106.3-132.4,90.2-148.5C652.2,575.5,585.7,615.9,519.8,681.9z"/>
				</g>
				<g>
					<g>
						
							<linearGradient id="SVGID_13_" gradientUnits="userSpaceOnUse" x1="720.1807" y1="950.6209" x2="1424.7227" y2="950.6209" gradientTransform="matrix(1 0 0 1 -394.6848 -42.6908)">
							<stop  offset="0" style="stop-color:#FFFFFF"/>
							<stop  offset="1" style="stop-color:#FFFFFF;stop-opacity:0"/>
						</linearGradient>
						<path opacity="0.2" fill="url(#SVGID_13_)" d="M1030,555.7c-4.1-4.1-644.2,629.5-673.6,658.9c-29.4,29.4-33.7,40.3-29.6,44.4
							c4.1,4.1,15-0.2,44.4-29.6C400.5,1199.9,1034.1,559.7,1030,555.7z"/>
						
							<linearGradient id="SVGID_14_" gradientUnits="userSpaceOnUse" x1="-358.1211" y1="1694.3285" x2="-147.8372" y2="1694.3285" gradientTransform="matrix(0.7071 -0.7071 0.7071 0.7071 -617.1475 -193.2978)">
							<stop  offset="0" style="stop-color:#FFFFFF"/>
							<stop  offset="1" style="stop-color:#FFFFFF;stop-opacity:0"/>
						</linearGradient>
						<path opacity="0.7" fill="url(#SVGID_14_)" d="M476.4,1109.3c-2.6-2.6-123.6,114.1-135.7,126.2c-12.1,12.1-15.6,19.8-13,22.5
							s10.3-0.8,22.5-13S479,1111.9,476.4,1109.3z"/>
						<path opacity="0.5" fill="#FFFFFF" d="M403.5,1182.2c-1.3-1.3-61.9,57.1-68,63.2c-6.1,6.1-7.8,9.9-6.5,11.3
							c1.3,1.3,5.2-0.4,11.3-6.5C346.4,1244.1,404.8,1183.5,403.5,1182.2z"/>
					</g>
					
						<radialGradient id="SVGID_15_" cx="1284.7531" cy="714.7686" r="41.1978" gradientTransform="matrix(2.897 -2.897 0.7071 0.7071 -3864.9695 4439.8311)" gradientUnits="userSpaceOnUse">
						<stop  offset="0" style="stop-color:#FFFFFF"/>
						<stop  offset="0.1375" style="stop-color:#FFFFFF;stop-opacity:0.8625"/>
						<stop  offset="1" style="stop-color:#FFFFFF;stop-opacity:0"/>
					</radialGradient>
					<path fill="url(#SVGID_15_)" d="M333.2,1194.2c-65.9,65.9-106.3,132.4-90.2,148.5c16.1,16.1,82.6-24.3,148.5-90.2
						s106.3-132.4,90.2-148.5C465.6,1087.9,399.1,1128.3,333.2,1194.2z"/>
				</g>
			</g>
			<g id="star">
				<g>
					<radialGradient id="SVGID_16_" cx="784.211" cy="168.111" r="20.0625" gradientUnits="userSpaceOnUse">
						<stop  offset="0" style="stop-color:#FFFFFF"/>
						<stop  offset="0.1375" style="stop-color:#FFFFFF;stop-opacity:0.8625"/>
						<stop  offset="1" style="stop-color:#FFFFFF;stop-opacity:0"/>
					</radialGradient>
					<circle opacity="0.5" fill="url(#SVGID_16_)" cx="784.2" cy="168.1" r="20.1"/>
					<circle fill="#FFFFFF" cx="784.2" cy="168.1" r="3.6"/>
				</g>
				<g>
					<radialGradient id="SVGID_17_" cx="111.3219" cy="744.6899" r="20.0625" gradientUnits="userSpaceOnUse">
						<stop  offset="0" style="stop-color:#FFFFFF"/>
						<stop  offset="0.1375" style="stop-color:#FFFFFF;stop-opacity:0.8625"/>
						<stop  offset="1" style="stop-color:#FFFFFF;stop-opacity:0"/>
					</radialGradient>
					<circle opacity="0.5" fill="url(#SVGID_17_)" cx="111.3" cy="744.7" r="20.1"/>
					<circle fill="#FFFFFF" cx="111.3" cy="744.7" r="3.6"/>
				</g>
				<g>
					<radialGradient id="SVGID_18_" cx="488.8991" cy="520.0442" r="10.0266" gradientUnits="userSpaceOnUse">
						<stop  offset="0" style="stop-color:#FFFFFF"/>
						<stop  offset="0.1375" style="stop-color:#FFFFFF;stop-opacity:0.8625"/>
						<stop  offset="1" style="stop-color:#FFFFFF;stop-opacity:0"/>
					</radialGradient>
					<circle opacity="0.5" fill="url(#SVGID_18_)" cx="488.9" cy="520" r="10"/>
					<circle fill="#FFFFFF" cx="488.9" cy="520" r="1.8"/>
				</g>
				<g>
					<radialGradient id="SVGID_19_" cx="392.4085" cy="518.2638" r="10.0266" gradientUnits="userSpaceOnUse">
						<stop  offset="0" style="stop-color:#FFFFFF"/>
						<stop  offset="0.1375" style="stop-color:#FFFFFF;stop-opacity:0.8625"/>
						<stop  offset="1" style="stop-color:#FFFFFF;stop-opacity:0"/>
					</radialGradient>
					<circle opacity="0.5" fill="url(#SVGID_19_)" cx="392.4" cy="518.3" r="10"/>
					<circle fill="#FFFFFF" cx="392.4" cy="518.3" r="1.8"/>
				</g>
				<g>
					<radialGradient id="SVGID_20_" cx="87.2276" cy="1110.1956" r="10.0266" gradientUnits="userSpaceOnUse">
						<stop  offset="0" style="stop-color:#FFFFFF"/>
						<stop  offset="0.1375" style="stop-color:#FFFFFF;stop-opacity:0.8625"/>
						<stop  offset="1" style="stop-color:#FFFFFF;stop-opacity:0"/>
					</radialGradient>
					<circle opacity="0.5" fill="url(#SVGID_20_)" cx="87.2" cy="1110.2" r="10"/>
					<circle fill="#FFFFFF" cx="87.2" cy="1110.2" r="1.8"/>
				</g>
				<g>
					<radialGradient id="SVGID_21_" cx="1158.1743" cy="764.7524" r="10.0266" gradientUnits="userSpaceOnUse">
						<stop  offset="0" style="stop-color:#FFFFFF"/>
						<stop  offset="0.1375" style="stop-color:#FFFFFF;stop-opacity:0.8625"/>
						<stop  offset="1" style="stop-color:#FFFFFF;stop-opacity:0"/>
					</radialGradient>
					<circle opacity="0.5" fill="url(#SVGID_21_)" cx="1158.2" cy="764.8" r="10"/>
					<circle fill="#FFFFFF" cx="1158.2" cy="764.8" r="1.8"/>
				</g>
				<g>
					<radialGradient id="SVGID_22_" cx="925.2673" cy="711.4948" r="10.0266" gradientUnits="userSpaceOnUse">
						<stop  offset="0" style="stop-color:#FFFFFF"/>
						<stop  offset="0.1375" style="stop-color:#FFFFFF;stop-opacity:0.8625"/>
						<stop  offset="1" style="stop-color:#FFFFFF;stop-opacity:0"/>
					</radialGradient>
					<circle opacity="0.5" fill="url(#SVGID_22_)" cx="925.3" cy="711.5" r="10"/>
					<circle fill="#FFFFFF" cx="925.3" cy="711.5" r="1.8"/>
				</g>
				<g>
					<radialGradient id="SVGID_23_" cx="1292.7853" cy="89.0472" r="10.0266" gradientUnits="userSpaceOnUse">
						<stop  offset="0" style="stop-color:#FFFFFF"/>
						<stop  offset="0.1375" style="stop-color:#FFFFFF;stop-opacity:0.8625"/>
						<stop  offset="1" style="stop-color:#FFFFFF;stop-opacity:0"/>
					</radialGradient>
					<circle opacity="0.5" fill="url(#SVGID_23_)" cx="1292.8" cy="89" r="10"/>
					<circle fill="#FFFFFF" cx="1292.8" cy="89" r="1.8"/>
				</g>
				<g>
					<radialGradient id="SVGID_24_" cx="1317.1652" cy="236.7952" r="10.0266" gradientUnits="userSpaceOnUse">
						<stop  offset="0" style="stop-color:#FFFFFF"/>
						<stop  offset="0.1375" style="stop-color:#FFFFFF;stop-opacity:0.8625"/>
						<stop  offset="1" style="stop-color:#FFFFFF;stop-opacity:0"/>
					</radialGradient>
					<circle opacity="0.5" fill="url(#SVGID_24_)" cx="1317.2" cy="236.8" r="10"/>
					<circle fill="#FFFFFF" cx="1317.2" cy="236.8" r="1.8"/>
				</g>
				<g>
					<radialGradient id="SVGID_25_" cx="671.7805" cy="235.0148" r="10.0266" gradientUnits="userSpaceOnUse">
						<stop  offset="0" style="stop-color:#FFFFFF"/>
						<stop  offset="0.1375" style="stop-color:#FFFFFF;stop-opacity:0.8625"/>
						<stop  offset="1" style="stop-color:#FFFFFF;stop-opacity:0"/>
					</radialGradient>
					<circle opacity="0.5" fill="url(#SVGID_25_)" cx="671.8" cy="235" r="10"/>
					<circle fill="#FFFFFF" cx="671.8" cy="235" r="1.8"/>
				</g>
				<g>
					<radialGradient id="SVGID_26_" cx="993.8356" cy="916.7899" r="20.0625" gradientUnits="userSpaceOnUse">
						<stop  offset="0" style="stop-color:#FFFFFF"/>
						<stop  offset="0.1375" style="stop-color:#FFFFFF;stop-opacity:0.8625"/>
						<stop  offset="1" style="stop-color:#FFFFFF;stop-opacity:0"/>
					</radialGradient>
					<circle opacity="0.5" fill="url(#SVGID_26_)" cx="993.8" cy="916.8" r="20.1"/>
					<circle fill="#FFFFFF" cx="993.8" cy="916.8" r="3.6"/>
				</g>
				<g>
					<radialGradient id="SVGID_27_" cx="471.5913" cy="971.0117" r="20.0625" gradientUnits="userSpaceOnUse">
						<stop  offset="0" style="stop-color:#FFFFFF"/>
						<stop  offset="0.1375" style="stop-color:#FFFFFF;stop-opacity:0.8625"/>
						<stop  offset="1" style="stop-color:#FFFFFF;stop-opacity:0"/>
					</radialGradient>
					<circle opacity="0.5" fill="url(#SVGID_27_)" cx="471.6" cy="971" r="20.1"/>
					<circle fill="#FFFFFF" cx="471.6" cy="971" r="3.6"/>
				</g>
				<g>
					<radialGradient id="SVGID_28_" cx="720.0624" cy="1002.7329" r="20.0625" gradientUnits="userSpaceOnUse">
						<stop  offset="0" style="stop-color:#FFFFFF"/>
						<stop  offset="0.1375" style="stop-color:#FFFFFF;stop-opacity:0.8625"/>
						<stop  offset="1" style="stop-color:#FFFFFF;stop-opacity:0"/>
					</radialGradient>
					<circle opacity="0.5" fill="url(#SVGID_28_)" cx="720.1" cy="1002.7" r="20.1"/>
					<circle fill="#FFFFFF" cx="720.1" cy="1002.7" r="3.6"/>
				</g>
				<g>
					<radialGradient id="SVGID_29_" cx="673.5609" cy="860.9069" r="12.7419" gradientUnits="userSpaceOnUse">
						<stop  offset="0" style="stop-color:#FFFFFF"/>
						<stop  offset="0.1375" style="stop-color:#FFFFFF;stop-opacity:0.8625"/>
						<stop  offset="1" style="stop-color:#FFFFFF;stop-opacity:0"/>
					</radialGradient>
					<circle opacity="0.5" fill="url(#SVGID_29_)" cx="673.6" cy="860.9" r="12.7"/>
					<circle fill="#FFFFFF" cx="673.6" cy="860.9" r="2.3"/>
				</g>
				<g>
					<radialGradient id="SVGID_30_" cx="902.4988" cy="818.6591" r="12.7419" gradientUnits="userSpaceOnUse">
						<stop  offset="0" style="stop-color:#FFFFFF"/>
						<stop  offset="0.1375" style="stop-color:#FFFFFF;stop-opacity:0.8625"/>
						<stop  offset="1" style="stop-color:#FFFFFF;stop-opacity:0"/>
					</radialGradient>
					<circle opacity="0.5" fill="url(#SVGID_30_)" cx="902.5" cy="818.7" r="12.7"/>
					<circle fill="#FFFFFF" cx="902.5" cy="818.7" r="2.3"/>
				</g>
				<g>
					<radialGradient id="SVGID_31_" cx="131.3844" cy="589.5782" r="12.7419" gradientUnits="userSpaceOnUse">
						<stop  offset="0" style="stop-color:#FFFFFF"/>
						<stop  offset="0.1375" style="stop-color:#FFFFFF;stop-opacity:0.8625"/>
						<stop  offset="1" style="stop-color:#FFFFFF;stop-opacity:0"/>
					</radialGradient>
					<circle opacity="0.5" fill="url(#SVGID_31_)" cx="131.4" cy="589.6" r="12.7"/>
					<circle fill="#FFFFFF" cx="131.4" cy="589.6" r="2.3"/>
				</g>
				<g>
					<radialGradient id="SVGID_32_" cx="428.5335" cy="1139.1869" r="12.7419" gradientUnits="userSpaceOnUse">
						<stop  offset="0" style="stop-color:#FFFFFF"/>
						<stop  offset="0.1375" style="stop-color:#FFFFFF;stop-opacity:0.8625"/>
						<stop  offset="1" style="stop-color:#FFFFFF;stop-opacity:0"/>
					</radialGradient>
					<circle opacity="0.5" fill="url(#SVGID_32_)" cx="428.5" cy="1139.2" r="12.7"/>
					<circle fill="#FFFFFF" cx="428.5" cy="1139.2" r="2.3"/>
				</g>
				<g>
					<radialGradient id="SVGID_33_" cx="760.4827" cy="734.2632" r="12.7419" gradientUnits="userSpaceOnUse">
						<stop  offset="0" style="stop-color:#FFFFFF"/>
						<stop  offset="0.1375" style="stop-color:#FFFFFF;stop-opacity:0.8625"/>
						<stop  offset="1" style="stop-color:#FFFFFF;stop-opacity:0"/>
					</radialGradient>
					<circle opacity="0.5" fill="url(#SVGID_33_)" cx="760.5" cy="734.3" r="12.7"/>
					<circle fill="#FFFFFF" cx="760.5" cy="734.3" r="2.3"/>
				</g>
				<g>
					<radialGradient id="SVGID_34_" cx="608.2737" cy="68.9848" r="20.0625" gradientUnits="userSpaceOnUse">
						<stop  offset="0" style="stop-color:#FFFFFF"/>
						<stop  offset="0.1375" style="stop-color:#FFFFFF;stop-opacity:0.8625"/>
						<stop  offset="1" style="stop-color:#FFFFFF;stop-opacity:0"/>
					</radialGradient>
					<circle opacity="0.5" fill="url(#SVGID_34_)" cx="608.3" cy="69" r="20.1"/>
					<circle fill="#FFFFFF" cx="608.3" cy="69" r="3.6"/>
				</g>
				<g>
					
						<radialGradient id="SVGID_35_" cx="3650.9573" cy="599.5108" r="34.3124" gradientTransform="matrix(0.2895 0 0 1 -262.0612 0)" gradientUnits="userSpaceOnUse">
						<stop  offset="0" style="stop-color:#FFFFFF"/>
						<stop  offset="0.1375" style="stop-color:#FFFFFF;stop-opacity:0.8625"/>
						<stop  offset="1" style="stop-color:#FFFFFF;stop-opacity:0"/>
					</radialGradient>
					<ellipse fill="url(#SVGID_35_)" cx="794.8" cy="599.5" rx="9.9" ry="34.3"/>
					
						<radialGradient id="SVGID_36_" cx="-2059.8638" cy="1273.6219" r="34.3124" gradientTransform="matrix(0 -0.2895 1 0 -478.8268 3.2343)" gradientUnits="userSpaceOnUse">
						<stop  offset="0" style="stop-color:#FFFFFF"/>
						<stop  offset="0.1375" style="stop-color:#FFFFFF;stop-opacity:0.8625"/>
						<stop  offset="1" style="stop-color:#FFFFFF;stop-opacity:0"/>
					</radialGradient>
					<ellipse fill="url(#SVGID_36_)" cx="794.8" cy="599.5" rx="34.3" ry="9.9"/>
					<circle fill="#FFFFFF" cx="794.8" cy="599.5" r="3.9"/>
				</g>
				<g>
					
						<radialGradient id="SVGID_37_" cx="2914.9087" cy="1154.5345" r="53.0194" gradientTransform="matrix(0.2895 0 0 1 -262.0612 0)" gradientUnits="userSpaceOnUse">
						<stop  offset="0" style="stop-color:#FFFFFF"/>
						<stop  offset="0.1375" style="stop-color:#FFFFFF;stop-opacity:0.8625"/>
						<stop  offset="1" style="stop-color:#FFFFFF;stop-opacity:0"/>
					</radialGradient>
					<ellipse fill="url(#SVGID_37_)" cx="581.7" cy="1154.5" rx="15.3" ry="53"/>
					
						<radialGradient id="SVGID_38_" cx="-3977.2183" cy="1060.5552" r="53.0194" gradientTransform="matrix(0 -0.2895 1 0 -478.8268 3.2343)" gradientUnits="userSpaceOnUse">
						<stop  offset="0" style="stop-color:#FFFFFF"/>
						<stop  offset="0.1375" style="stop-color:#FFFFFF;stop-opacity:0.8625"/>
						<stop  offset="1" style="stop-color:#FFFFFF;stop-opacity:0"/>
					</radialGradient>
					<ellipse fill="url(#SVGID_38_)" cx="581.7" cy="1154.5" rx="53" ry="15.3"/>
					<circle fill="#FFFFFF" cx="581.7" cy="1154.5" r="6"/>
				</g>
				<g>
					
						<radialGradient id="SVGID_39_" cx="2628.863" cy="348.3705" r="53.0194" gradientTransform="matrix(0.2895 0 0 1 -262.0612 0)" gradientUnits="userSpaceOnUse">
						<stop  offset="0" style="stop-color:#FFFFFF"/>
						<stop  offset="0.1375" style="stop-color:#FFFFFF;stop-opacity:0.8625"/>
						<stop  offset="1" style="stop-color:#FFFFFF;stop-opacity:0"/>
					</radialGradient>
					<ellipse fill="url(#SVGID_39_)" cx="498.9" cy="348.4" rx="15.3" ry="53"/>
					
						<radialGradient id="SVGID_40_" cx="-1192.2885" cy="977.7525" r="53.0194" gradientTransform="matrix(0 -0.2895 1 0 -478.8268 3.2343)" gradientUnits="userSpaceOnUse">
						<stop  offset="0" style="stop-color:#FFFFFF"/>
						<stop  offset="0.1375" style="stop-color:#FFFFFF;stop-opacity:0.8625"/>
						<stop  offset="1" style="stop-color:#FFFFFF;stop-opacity:0"/>
					</radialGradient>
					<ellipse fill="url(#SVGID_40_)" cx="498.9" cy="348.4" rx="53" ry="15.3"/>
					<circle fill="#FFFFFF" cx="498.9" cy="348.4" r="6"/>
				</g>
				<g>
					
						<radialGradient id="SVGID_41_" cx="1488.4526" cy="1286.2802" r="34.3124" gradientTransform="matrix(0.2895 0 0 1 -262.0612 0)" gradientUnits="userSpaceOnUse">
						<stop  offset="0" style="stop-color:#FFFFFF"/>
						<stop  offset="0.1375" style="stop-color:#FFFFFF;stop-opacity:0.8625"/>
						<stop  offset="1" style="stop-color:#FFFFFF;stop-opacity:0"/>
					</radialGradient>
					<ellipse fill="url(#SVGID_41_)" cx="168.8" cy="1286.3" rx="9.9" ry="34.3"/>
					
						<radialGradient id="SVGID_42_" cx="-4432.3394" cy="647.6337" r="34.3124" gradientTransform="matrix(0 -0.2895 1 0 -478.8268 3.2343)" gradientUnits="userSpaceOnUse">
						<stop  offset="0" style="stop-color:#FFFFFF"/>
						<stop  offset="0.1375" style="stop-color:#FFFFFF;stop-opacity:0.8625"/>
						<stop  offset="1" style="stop-color:#FFFFFF;stop-opacity:0"/>
					</radialGradient>
					<ellipse fill="url(#SVGID_42_)" cx="168.8" cy="1286.3" rx="34.3" ry="9.9"/>
					<circle fill="#FFFFFF" cx="168.8" cy="1286.3" r="3.9"/>
				</g>
				<g>
					
						<radialGradient id="SVGID_43_" cx="5302.3369" cy="882.4775" r="34.3124" gradientTransform="matrix(0.2895 0 0 1 -262.0612 0)" gradientUnits="userSpaceOnUse">
						<stop  offset="0" style="stop-color:#FFFFFF"/>
						<stop  offset="0.1375" style="stop-color:#FFFFFF;stop-opacity:0.8625"/>
						<stop  offset="1" style="stop-color:#FFFFFF;stop-opacity:0"/>
					</radialGradient>
					<ellipse fill="url(#SVGID_43_)" cx="1272.8" cy="882.5" rx="9.9" ry="34.3"/>
					
						<radialGradient id="SVGID_44_" cx="-3037.3848" cy="1751.653" r="34.3124" gradientTransform="matrix(0 -0.2895 1 0 -478.8268 3.2343)" gradientUnits="userSpaceOnUse">
						<stop  offset="0" style="stop-color:#FFFFFF"/>
						<stop  offset="0.1375" style="stop-color:#FFFFFF;stop-opacity:0.8625"/>
						<stop  offset="1" style="stop-color:#FFFFFF;stop-opacity:0"/>
					</radialGradient>
					<ellipse fill="url(#SVGID_44_)" cx="1272.8" cy="882.5" rx="34.3" ry="9.9"/>
					<circle fill="#FFFFFF" cx="1272.8" cy="882.5" r="3.9"/>
				</g>
				<g>
					
						<radialGradient id="SVGID_45_" cx="4641.3325" cy="113.3331" r="34.3124" gradientTransform="matrix(0.2895 0 0 1 -262.0612 0)" gradientUnits="userSpaceOnUse">
						<stop  offset="0" style="stop-color:#FFFFFF"/>
						<stop  offset="0.1375" style="stop-color:#FFFFFF;stop-opacity:0.8625"/>
						<stop  offset="1" style="stop-color:#FFFFFF;stop-opacity:0"/>
					</radialGradient>
					<ellipse fill="url(#SVGID_45_)" cx="1081.5" cy="113.3" rx="9.9" ry="34.3"/>
					
						<radialGradient id="SVGID_46_" cx="-380.3412" cy="1560.3096" r="34.3124" gradientTransform="matrix(0 -0.2895 1 0 -478.8268 3.2343)" gradientUnits="userSpaceOnUse">
						<stop  offset="0" style="stop-color:#FFFFFF"/>
						<stop  offset="0.1375" style="stop-color:#FFFFFF;stop-opacity:0.8625"/>
						<stop  offset="1" style="stop-color:#FFFFFF;stop-opacity:0"/>
					</radialGradient>
					<ellipse fill="url(#SVGID_46_)" cx="1081.5" cy="113.3" rx="34.3" ry="9.9"/>
					<circle fill="#FFFFFF" cx="1081.5" cy="113.3" r="3.9"/>
				</g>
				<g>
					
						<radialGradient id="SVGID_47_" cx="2142.3608" cy="669.785" r="34.3124" gradientTransform="matrix(0.2895 0 0 1 -262.0612 0)" gradientUnits="userSpaceOnUse">
						<stop  offset="0" style="stop-color:#FFFFFF"/>
						<stop  offset="0.1375" style="stop-color:#FFFFFF;stop-opacity:0.8625"/>
						<stop  offset="1" style="stop-color:#FFFFFF;stop-opacity:0"/>
					</radialGradient>
					<ellipse fill="url(#SVGID_47_)" cx="358.1" cy="669.8" rx="9.9" ry="34.3"/>
					
						<radialGradient id="SVGID_48_" cx="-2302.6294" cy="836.9229" r="34.3124" gradientTransform="matrix(0 -0.2895 1 0 -478.8268 3.2343)" gradientUnits="userSpaceOnUse">
						<stop  offset="0" style="stop-color:#FFFFFF"/>
						<stop  offset="0.1375" style="stop-color:#FFFFFF;stop-opacity:0.8625"/>
						<stop  offset="1" style="stop-color:#FFFFFF;stop-opacity:0"/>
					</radialGradient>
					<ellipse fill="url(#SVGID_48_)" cx="358.1" cy="669.8" rx="34.3" ry="9.9"/>
					<circle fill="#FFFFFF" cx="358.1" cy="669.8" r="3.9"/>
				</g>
				<g>
					<radialGradient id="SVGID_49_" cx="448.5959" cy="1314.5887" r="20.0625" gradientUnits="userSpaceOnUse">
						<stop  offset="0" style="stop-color:#FFFFFF"/>
						<stop  offset="0.1375" style="stop-color:#FFFFFF;stop-opacity:0.8625"/>
						<stop  offset="1" style="stop-color:#FFFFFF;stop-opacity:0"/>
					</radialGradient>
					<circle opacity="0.5" fill="url(#SVGID_49_)" cx="448.6" cy="1314.6" r="20.1"/>
					<circle fill="#FFFFFF" cx="448.6" cy="1314.6" r="3.6"/>
				</g>
			</g>
		</g>
	</g>
</g>
</svg>
